<svg xmlns:xlink="http://www.w3.org/1999/xlink" xmlns="http://www.w3.org/2000/svg" id="Oc-wUeH2aT" viewBox="0 0 369.96969696969694 75.03030303030303" height="75.03030303030303" width="369.96969696969694" style="width: 369.97px; height: 75.0303px; position: absolute; top: 50%; left: 50%; transform: translate(-50%, -50%) scale(0.613158); z-index: 0; cursor: pointer; overflow: visible;"><defs id="SvgjsDefs1011"></defs><g id="SvgjsG1012" featurekey="HKaMnE-0" transform="matrix(1.6571969696969697,0,0,1.6571969696969697,6,22)" fill="#0C056D"><g xmlns="http://www.w3.org/2000/svg" display="none" fill="#0C056D"><rect x="-153.365" y="-18.667" display="inline" fill="#0C056D" width="473.333" height="236"></rect></g><g xmlns="http://www.w3.org/2000/svg" display="none" fill="#0C056D"><ellipse transform="matrix(0.7071 -0.7071 0.7071 0.7071 -6.6274 16)" display="inline" cx="16" cy="16" rx="16" ry="16" fill="#0C056D"></ellipse><line display="inline" fill="#0C056D" stroke="#0C056D" stroke-miterlimit="10" x1="7.837" y1="15.12" x2="15.267" y2="7.69"></line><line display="inline" fill="#0C056D" stroke="#0C056D" stroke-miterlimit="10" x1="7.968" y1="19.579" x2="20.033" y2="7.514"></line><line display="inline" fill="#0C056D" stroke="#0C056D" stroke-miterlimit="10" x1="7.759" y1="24.377" x2="24.241" y2="7.896"></line><line display="inline" fill="#0C056D" stroke="#0C056D" stroke-miterlimit="10" x1="12.518" y1="24.209" x2="24.064" y2="12.662"></line><line display="inline" fill="#0C056D" stroke="#0C056D" stroke-miterlimit="10" x1="16.83" y1="24.486" x2="24.22" y2="17.096"></line></g><g xmlns="http://www.w3.org/2000/svg" fill="#0C056D"><path d="M16,0C11.905,0,7.81,1.562,4.686,4.686c-6.248,6.248-6.248,16.379,0,22.627C7.81,30.438,11.905,32,16,32   c4.095,0,8.19-1.562,11.314-4.686c6.248-6.248,6.248-16.379,0-22.627C24.19,1.562,20.095,0,16,0z M26.607,26.607   C23.773,29.44,20.007,31,16,31s-7.773-1.56-10.607-4.393c-5.849-5.849-5.849-15.365,0-21.213C8.227,2.56,11.993,1,16,1   s7.773,1.56,10.607,4.393C32.455,11.242,32.455,20.758,26.607,26.607z" fill="#0C056D"></path><rect x="6.298" y="10.905" transform="matrix(0.7071 -0.7071 0.7071 0.7071 -4.681 11.5091)" width="10.508" height="1" fill="#0C056D"></rect><rect x="5.469" y="13.046" transform="matrix(0.7071 -0.7071 0.7071 0.7071 -5.4781 13.8675)" width="17.063" height="1" fill="#0C056D"></rect><rect x="4.346" y="15.637" transform="matrix(0.7071 -0.7071 0.7071 0.7071 -6.7239 16.04)" width="23.307" height="1" fill="#0C056D"></rect><rect x="10.126" y="17.936" transform="matrix(0.7071 -0.7071 0.7071 0.7071 -7.6786 18.3333)" width="16.33" height="1" fill="#0C056D"></rect><rect x="15.3" y="20.292" transform="matrix(0.7071 -0.7071 0.7071 0.7071 -8.6902 20.603)" width="10.451" height="1" fill="#0C056D"></rect></g><g xmlns="http://www.w3.org/2000/svg" display="none" fill="#0C056D"><g display="inline" fill="#0C056D"><path fill="#0C056D" d="M16,31.5c-4.141,0-8.032-1.612-10.96-4.54S0.5,20.141,0.5,16c0-4.14,1.612-8.033,4.54-10.96    C7.968,2.112,11.859,0.5,16,0.5s8.032,1.612,10.96,4.54C29.888,7.967,31.5,11.86,31.5,16c0,4.141-1.612,8.032-4.54,10.96    S20.141,31.5,16,31.5z"></path><g fill="#0C056D"><path fill="#0C056D" d="M16,1c4.007,0,7.773,1.56,10.607,4.393c5.848,5.849,5.848,15.365,0,21.213C23.773,29.44,20.007,31,16,31     c-4.007,0-7.773-1.56-10.607-4.393c-5.849-5.849-5.849-15.365,0-21.213C8.227,2.56,11.993,1,16,1 M16,0     C11.905,0,7.81,1.562,4.686,4.686c-6.248,6.248-6.248,16.379,0,22.627C7.81,30.438,11.905,32,16,32s8.19-1.562,11.314-4.686     c6.248-6.248,6.248-16.379,0-22.627C24.19,1.562,20.095,0,16,0L16,0z"></path></g></g><line display="inline" fill="#0C056D" stroke="#0C056D" stroke-miterlimit="10" x1="7.837" y1="15.12" x2="15.267" y2="7.69"></line><line display="inline" fill="#0C056D" stroke="#0C056D" stroke-miterlimit="10" x1="7.968" y1="19.579" x2="20.033" y2="7.514"></line><line display="inline" fill="#0C056D" stroke="#0C056D" stroke-miterlimit="10" x1="7.759" y1="24.377" x2="24.241" y2="7.896"></line><line display="inline" fill="#0C056D" stroke="#0C056D" stroke-miterlimit="10" x1="12.518" y1="24.209" x2="24.064" y2="12.662"></line><line display="inline" fill="#0C056D" stroke="#0C056D" stroke-miterlimit="10" x1="16.83" y1="24.486" x2="24.22" y2="17.096"></line></g><g xmlns="http://www.w3.org/2000/svg" display="none" fill="#0C056D"><path display="inline" d="M4.686,4.686c-6.248,6.248-6.248,16.379,0,22.627c6.248,6.248,16.379,6.248,22.627,0   c6.248-6.248,6.248-16.379,0-22.627C21.065-1.562,10.935-1.562,4.686,4.686z M19.68,7.16l0.707,0.707L8.321,19.933l-0.707-0.707   L19.68,7.16z M14.914,7.336l0.707,0.707l-7.431,7.43l-0.707-0.707L14.914,7.336z M12.871,24.562l-0.707-0.707l11.547-11.547   l0.707,0.707L12.871,24.562z M17.184,24.84l-0.707-0.707l7.39-7.39l0.707,0.707L17.184,24.84z M8.113,24.73l-0.707-0.707   l16.48-16.481l0.707,0.707L8.113,24.73z" fill="#0C056D"></path></g></g><g id="SvgjsG1013" featurekey="J3GnXt-0" transform="matrix(2.093399800451058,0,0,2.093399800451058,69.1900135011394,19.784208734228244)" fill="#0C056D"><path d="M6.9 5.84 c1.3733 0 2.4566 0.34 3.25 1.02 s1.19 1.66 1.19 2.94 c0 1.24 -0.39334 2.21 -1.18 2.91 s-1.8733 1.05 -3.26 1.05 l-3.16 0 l0 6.24 l-1.92 0 l0 -14.16 l5.08 0 z M6.34 12.08 c1 0 1.7433 -0.18336 2.23 -0.55002 s0.73 -0.94332 0.73 -1.73 c0 -1.52 -0.98666 -2.28 -2.96 -2.28 l-2.6 0 l0 4.56 l2.6 0 z M17.9 10.28 c0.33334 0 0.6 0.04 0.8 0.12 l-0.08 1.94 c-0.34666 -0.09334 -0.64666 -0.14 -0.9 -0.14 c-1.7733 0 -2.6734 0.98666 -2.7 2.96 l0 4.84 l-1.8 0 l0 -9.48 l1.8 0 l0 1.46 l0.04 0 c0.24 -0.50666 0.62666 -0.91666 1.16 -1.23 s1.0933 -0.47 1.68 -0.47 z M24.84 10.28 c1.4 0 2.5866 0.48338 3.56 1.45 s1.4667 2.1434 1.48 3.53 c0 1.4 -0.48666 2.5734 -1.46 3.52 s-2.1666 1.4333 -3.58 1.46 c-1.3867 0 -2.5666 -0.48 -3.54 -1.44 s-1.4733 -2.14 -1.5 -3.54 c0 -1.3733 0.48334 -2.54 1.45 -3.5 s2.1634 -1.4533 3.59 -1.48 z M21.72 15.26 c0 0.97334 0.28664 1.7633 0.85998 2.37 s1.3267 0.91666 2.26 0.93 c0.94666 0 1.7 -0.30334 2.26 -0.91 s0.84666 -1.4033 0.86 -2.39 c0 -0.97334 -0.28 -1.7633 -0.84 -2.37 s-1.3267 -0.91666 -2.3 -0.93 c-0.94666 0 -1.7 0.31334 -2.26 0.94 s-0.84 1.4133 -0.84 2.36 z M41.64 4.880000000000001 l-0.000019531 15.12 l-1.8 0 l0 -1.36 l-0.04 0 c-0.34666 0.50666 -0.81666 0.9 -1.41 1.18 s-1.2233 0.42 -1.89 0.42 c-1.4267 -0.01334 -2.5834 -0.48668 -3.47 -1.42 s-1.3367 -2.12 -1.35 -3.56 c0 -1.4533 0.44334 -2.64 1.33 -3.56 s2.05 -1.3933 3.49 -1.42 c0.65334 0 1.28 0.14 1.88 0.42 s1.0733 0.67334 1.42 1.18 l0.04 0 l0 -7 l1.8 0 z M33.6 15.26 c0 0.97334 0.28666 1.7633 0.86 2.37 s1.3267 0.91666 2.26 0.93 c0.94666 0 1.7033 -0.30334 2.27 -0.91 s0.85 -1.4033 0.85 -2.39 c0 -0.97334 -0.28 -1.7633 -0.84 -2.37 s-1.3267 -0.91666 -2.3 -0.93 c-0.93334 0 -1.6833 0.30666 -2.25 0.92 s-0.85 1.4067 -0.85 2.38 z M46.16 10.52 l0 5.68 c0 0.74666 0.19666 1.3267 0.59 1.74 s0.91668 0.62 1.57 0.62 c0.84 0 1.49 -0.27666 1.95 -0.83 s0.69 -1.3033 0.69 -2.25 l0 -4.96 l1.8 0 l0 9.48 l-1.8 0 l0 -1.46 l-0.04 0 c-0.25334 0.53334 -0.66668 0.95 -1.24 1.25 s-1.2 0.45 -1.88 0.45 c-1.0533 0 -1.89 -0.32666 -2.51 -0.98 s-0.93 -1.5067 -0.93 -2.56 l0 -6.18 l1.8 0 z M59.980000000000004 10.3 c1.5067 0 2.72 0.5 3.64 1.5 l-1.36 1.24 c-0.65334 -0.70666 -1.44 -1.06 -2.36 -1.06 c-0.88 0 -1.5933 0.31334 -2.14 0.94 s-0.82 1.4333 -0.82 2.42 c0 0.93334 0.28666 1.7 0.86 2.3 s1.3067 0.90666 2.2 0.92 c0.94666 0 1.7133 -0.35334 2.3 -1.06 l1.28 1.28 c-0.85334 0.97334 -2.0534 1.46 -3.6 1.46 c-1.4533 0 -2.6366 -0.45334 -3.55 -1.36 s-1.3833 -2.1 -1.41 -3.58 c0.01334 -1.5067 0.48334 -2.7134 1.41 -3.62 s2.11 -1.3667 3.55 -1.38 z M67.62 7.859999999999999 l-0.000019531 2.66 l2.58 0 l0 1.56 l-2.58 0 l0 4.56 c0 0.61334 0.08666 1.0867 0.26 1.42 s0.54 0.5 1.1 0.5 c0.53334 0 0.96 -0.09334 1.28 -0.28 l0 1.64 c-0.34666 0.18666 -0.89332 0.29332 -1.64 0.31998 c-0.72 0 -1.2767 -0.11 -1.67 -0.33 s-0.68 -0.52666 -0.86 -0.92 s-0.27 -1.01 -0.27 -1.85 l0 -5.06 l-2.08 0 l0 -1.56 l2.08 0 l0 -2.66 l1.8 0 z M80.46000000000001 5.84 l0 12.36 l6.5 0 l0 1.8 l-8.42 0 l0 -14.16 l1.92 0 z M93.04 10.28 c1.4 0 2.5866 0.48338 3.56 1.45 s1.4667 2.1434 1.48 3.53 c0 1.4 -0.48666 2.5734 -1.46 3.52 s-2.1666 1.4333 -3.58 1.46 c-1.3867 0 -2.5666 -0.48 -3.54 -1.44 s-1.4733 -2.14 -1.5 -3.54 c0 -1.3733 0.48334 -2.54 1.45 -3.5 s2.1634 -1.4533 3.59 -1.48 z M89.92 15.26 c0 0.97334 0.28664 1.7633 0.85998 2.37 s1.3267 0.91666 2.26 0.93 c0.94666 0 1.7 -0.30334 2.26 -0.91 s0.84666 -1.4033 0.86 -2.39 c0 -0.97334 -0.28 -1.7633 -0.84 -2.37 s-1.3267 -0.91666 -2.3 -0.93 c-0.94666 0 -1.7 0.31334 -2.26 0.94 s-0.84 1.4133 -0.84 2.36 z M104.92 10.28 c1.4 0 2.5866 0.48338 3.56 1.45 s1.4667 2.1434 1.48 3.53 c0 1.4 -0.48666 2.5734 -1.46 3.52 s-2.1666 1.4333 -3.58 1.46 c-1.3867 0 -2.5666 -0.48 -3.54 -1.44 s-1.4733 -2.14 -1.5 -3.54 c0 -1.3733 0.48334 -2.54 1.45 -3.5 s2.1634 -1.4533 3.59 -1.48 z M101.8 15.26 c0 0.97334 0.28664 1.7633 0.85998 2.37 s1.3267 0.91666 2.26 0.93 c0.94666 0 1.7 -0.30334 2.26 -0.91 s0.84666 -1.4033 0.86 -2.39 c0 -0.97334 -0.28 -1.7633 -0.84 -2.37 s-1.3267 -0.91666 -2.3 -0.93 c-0.94666 0 -1.7 0.31334 -2.26 0.94 s-0.84 1.4133 -0.84 2.36 z M114.02 4.880000000000001 l0 9.76 l4.1 -4.12 l2.5 0 l-4.44 4.32 l4.8 5.16 l-2.56 0 l-4.4 -4.92 l0 4.92 l-1.8 0 l0 -15.12 l1.8 0 z M124.39999999999999 10.52 l0 5.68 c0 0.74666 0.19666 1.3267 0.59 1.74 s0.91668 0.62 1.57 0.62 c0.84 0 1.49 -0.27666 1.95 -0.83 s0.69 -1.3033 0.69 -2.25 l0 -4.96 l1.8 0 l0 9.48 l-1.8 0 l0 -1.46 l-0.04 0 c-0.25334 0.53334 -0.66668 0.95 -1.24 1.25 s-1.2 0.45 -1.88 0.45 c-1.0533 0 -1.89 -0.32666 -2.51 -0.98 s-0.93 -1.5067 -0.93 -2.56 l0 -6.18 l1.8 0 z M138.88 10.28 c1.4 0 2.5434 0.45998 3.43 1.38 s1.3433 2.12 1.37 3.6 c0 1.48 -0.45334 2.6766 -1.36 3.59 s-2.06 1.3767 -3.46 1.39 c-0.69334 0 -1.34 -0.14666 -1.94 -0.44 s-1.0533 -0.68 -1.36 -1.16 l-0.04 0 l0 7 l-1.8 0 l0 -15.12 l1.8 0 l0 1.36 l0.04 0 c0.36 -0.50666 0.83334 -0.9 1.42 -1.18 s1.22 -0.42 1.9 -0.42 z M135.51999999999998 15.26 c0 0.98666 0.28998 1.7833 0.86998 2.39 s1.33 0.91 2.25 0.91 c0.96 0 1.7167 -0.30334 2.27 -0.91 s0.83668 -1.4033 0.85002 -2.39 c0 -0.98666 -0.28334 -1.78 -0.85 -2.38 s-1.33 -0.90666 -2.29 -0.92 c-0.94666 0 -1.7 0.31 -2.26 0.93 s-0.84 1.41 -0.84 2.37 z" fill="#0C056D"></path></g></svg>